<svg height="512pt" viewBox="0 -1 512.00003 512" width="512pt" xmlns="http://www.w3.org/2000/svg"><path d="m504.445312 232.902344v262.878906c0 2.015625-.847656 3.839844-2.207031 5.109375-1.257812 1.207031-2.960937 1.941406-4.84375 1.941406h-482.789062c-1.824219 0-3.472657-.683593-4.722657-1.832031-1.429687-1.269531-2.328124-3.144531-2.328124-5.21875v-262.878906l37.410156-17.800782 206.390625-98.210937c2.941406-1.402344 6.347656-1.402344 9.289062 0zm0 0" fill="#d2d2d7"/><path d="m504.445312 232.902344v229.707031h-452.425781c-1.824219 0-3.476562-.683594-4.726562-1.832031-1.429688-1.269532-2.328125-3.140625-2.328125-5.21875v-240.457032l206.390625-98.210937c2.941406-1.402344 6.347656-1.402344 9.289062 0zm0 0" fill="#ebebf0"/><path d="m504.445312 232.902344-243.796874 116.015625c-2.941407 1.398437-6.355469 1.398437-9.296876 0l-243.796874-116.015625 243.796874-116.011719c2.941407-1.398437 6.355469-1.398437 9.296876 0zm0 0" fill="#a0a0a5"/><path d="m502.238281 500.890625c-1.257812 1.207031-2.960937 1.941406-4.84375 1.941406h-482.789062c-1.824219 0-3.472657-.683593-4.722657-1.832031l4.835938-5.773438 168.261719-178.847656 68.375 32.535156c2.941406 1.402344 6.347656 1.402344 9.289062 0l68.375-32.535156 168.261719 178.847656s1.9375 2.199219 4.957031 5.664063zm0 0" fill="#d2d2d7"/><path d="m502.238281 500.890625c-1.257812 1.207031-2.960937 1.941406-4.84375 1.941406h-482.789062c-1.824219 0-3.472657-.683593-4.722657-1.832031l4.835938-5.773438 32.484375-34.527343c.03125.019531.058594.046875.089844.078125 1.25 1.148437 2.902343 1.832031 4.726562 1.832031h414.582031l30.679688 32.617187s1.9375 2.199219 4.957031 5.664063zm0 0" fill="#a0a0a5"/><path d="m44.964844 215.101562v35.601563l-37.410156-17.800781zm0 0" fill="#7d8287"/><path d="m432.148438 17.769531v249.53125l-171.503907 81.613281c-2.941406 1.402344-6.347656 1.402344-9.289062 0l-171.503907-81.613281v-249.53125c0-5.640625 4.5625-10.214843 10.203126-10.214843h331.890624c5.640626 0 10.203126 4.574218 10.203126 10.214843zm0 0" fill="#ffc14f"/><path d="m432.148438 227.632812v39.667969l-171.503907 81.613281c-2.941406 1.402344-6.347656 1.402344-9.289062 0l-171.503907-81.613281v-39.667969l171.503907 81.613282c2.941406 1.402344 6.347656 1.402344 9.289062 0zm0 0" fill="#ffb52d"/><path d="m144.542969 62.488281h222.914062c4.171875 0 7.554688-3.382812 7.554688-7.554687s-3.382813-7.554688-7.554688-7.554688h-222.914062c-4.171875 0-7.554688 3.382813-7.554688 7.554688s3.382813 7.554687 7.554688 7.554687zm0 0"/><path d="m116.519531 110.835938h201.460938c4.175781 0 7.558593-3.382813 7.558593-7.554688s-3.382812-7.554688-7.558593-7.554688h-201.460938c-4.171875 0-7.554687 3.382813-7.554687 7.554688s3.382812 7.554688 7.554687 7.554688zm0 0"/><path d="m340.648438 103.28125c0 4.171875 3.382812 7.554688 7.554687 7.554688h47.277344c4.171875 0 7.554687-3.382813 7.554687-7.554688s-3.382812-7.554688-7.554687-7.554688h-47.277344c-4.171875 0-7.554687 3.382813-7.554687 7.554688zm0 0"/><path d="m116.519531 151.097656h278.960938c4.171875 0 7.554687-3.382812 7.554687-7.554687s-3.382812-7.554688-7.554687-7.554688h-278.960938c-4.171875 0-7.554687 3.382813-7.554687 7.554688s3.382812 7.554687 7.554687 7.554687zm0 0"/><path d="m116.519531 191.359375h278.960938c4.171875 0 7.554687-3.382813 7.554687-7.554687 0-4.171876-3.382812-7.554688-7.554687-7.554688h-278.960938c-4.171875 0-7.554687 3.382812-7.554687 7.554688 0 4.171874 3.382812 7.554687 7.554687 7.554687zm0 0"/><path d="m116.519531 231.621094h278.960938c4.171875 0 7.554687-3.382813 7.554687-7.554688 0-4.175781-3.382812-7.554687-7.554687-7.554687h-278.960938c-4.171875 0-7.554687 3.378906-7.554687 7.554687 0 4.171875 3.382812 7.554688 7.554687 7.554688zm0 0"/><path d="m116.519531 271.878906h278.960938c4.171875 0 7.554687-3.378906 7.554687-7.554687 0-4.171875-3.382812-7.554688-7.554687-7.554688h-278.960938c-4.171875 0-7.554687 3.382813-7.554687 7.554688 0 4.175781 3.382812 7.554687 7.554687 7.554687zm0 0"/><path d="m507.6875 226.082031-67.984375-32.355469v-186.171874c0-4.171876-3.371094-7.554688-7.554687-7.554688h-352.296876c-4.183593 0-7.554687 3.382812-7.554687 7.554688v186.171874l-67.984375 32.355469c-2.640625 1.25-4.3125 3.910157-4.3125 6.820313v262.878906c0 8.058594 6.558594 14.605469 14.605469 14.605469h141.023437c4.171875 0 7.558594-3.371094 7.558594-7.554688 0-4.167969-3.386719-7.554687-7.558594-7.554687h-130.585937l159.671875-169.710938 63.386718 30.167969c5.046876 2.414063 10.824219 2.367187 15.796876.011719l63.390624-30.171875 54.046876 57.445312c1.488281 1.578125 3.492187 2.375 5.503906 2.375 6.570312 0 10.039062-7.90625 5.5-12.730469l-50.71875-53.910156c75.679687-36.015625 141.40625-67.296875 155.269531-73.894531v238.925781l-83.839844-89.113281c-2.859375-3.035156-7.640625-3.183594-10.679687-.324219-3.039063 2.859375-3.1875 7.640625-.328125 10.679688l84.914062 90.253906h-301.105469c-4.179687 0-7.554687 3.382812-7.554687 7.554688 0 4.179687 3.375 7.554687 7.554687 7.554687h311.542969c8.046875 0 14.605469-6.550781 14.605469-14.609375v-262.878906c0-2.910156-1.671875-5.570313-4.3125-6.820313zm-435.390625-15.621093v44.882812l-47.160156-22.441406zm98.089844 108.285156-155.277344 165.039062v-238.925781c.105469.050781 165.765625 78.878906 155.277344 73.886719zm84.214843 23.347656-62.960937-29.957031h128.71875c-64.964844 30.425781-63.105469 31.226562-65.757813 29.957031zm169.992188-155.558594v76.003906l-72.484375 34.488282h-192.21875l-72.484375-34.488282c0-76.25 0-237.25 0-247.429687h337.1875zm15.109375 68.808594v-44.882812l47.160156 22.441406zm0 0"/></svg>