<svg width="85" height="22" viewBox="0 0 85 22" fill="none" xmlns="http://www.w3.org/2000/svg">
<path d="M0.123829 16.2H2.31383C2.95383 16.2 3.38383 16.08 3.60383 15.84C3.82383 15.6 3.93383 15.26 3.93383 14.82V0.989998H10.5338V15.93C10.5338 17.79 10.1038 19.1 9.24383 19.86C8.40383 20.62 7.05383 21 5.19383 21H0.123829V16.2ZM4.95383 18.6C5.93383 18.6 6.62383 18.39 7.02383 17.97C7.42383 17.53 7.62383 16.88 7.62383 16.02V3.39H6.81383V16.02C6.81383 16.64 6.70383 17.11 6.48383 17.43C6.26383 17.73 5.75383 17.88 4.95383 17.88H2.52383V18.6H4.95383ZM15.121 18.39C15.401 18.45 15.701 18.5 16.021 18.54C16.301 18.58 16.591 18.62 16.891 18.66C17.211 18.68 17.531 18.69 17.851 18.69C18.411 18.69 18.951 18.63 19.471 18.51C20.011 18.37 20.491 18.15 20.911 17.85C21.331 17.55 21.661 17.17 21.901 16.71C22.161 16.23 22.291 15.65 22.291 14.97C22.291 14.39 22.141 13.84 21.841 13.32C21.561 12.8 21.191 12.3 20.731 11.82C20.291 11.34 19.811 10.88 19.291 10.44C18.791 10 18.311 9.56 17.851 9.12C17.411 8.66 17.041 8.21 16.741 7.77C16.461 7.31 16.321 6.84 16.321 6.36C16.321 5.64 16.551 5.09 17.011 4.71C17.471 4.31 18.211 4.11 19.231 4.11C19.391 4.11 19.551 4.12 19.711 4.14C19.891 4.14 20.061 4.15 20.221 4.17C20.381 4.19 20.541 4.2 20.701 4.2V3.42C20.561 3.42 20.411 3.41 20.251 3.39C20.111 3.37 19.951 3.36 19.771 3.36C19.611 3.34 19.441 3.33 19.261 3.33C18.181 3.33 17.291 3.58 16.591 4.08C15.891 4.56 15.541 5.32 15.541 6.36C15.541 6.92 15.681 7.45 15.961 7.95C16.261 8.43 16.631 8.91 17.071 9.39C17.531 9.85 18.011 10.3 18.511 10.74C19.031 11.18 19.511 11.63 19.951 12.09C20.411 12.53 20.781 12.99 21.061 13.47C21.361 13.95 21.511 14.45 21.511 14.97C21.511 15.93 21.181 16.66 20.521 17.16C19.881 17.66 18.991 17.91 17.851 17.91C17.171 17.91 16.551 17.86 15.991 17.76C15.691 17.72 15.401 17.67 15.121 17.61V18.39ZM12.601 14.79C13.041 14.93 13.501 15.04 13.981 15.12C14.381 15.22 14.831 15.3 15.331 15.36C15.851 15.42 16.371 15.45 16.891 15.45C17.811 15.45 18.271 15.11 18.271 14.43C18.271 14.17 18.131 13.91 17.851 13.65C17.571 13.37 17.211 13.07 16.771 12.75C16.351 12.41 15.891 12.04 15.391 11.64C14.911 11.24 14.451 10.78 14.011 10.26C13.591 9.74 13.241 9.16 12.961 8.52C12.681 7.86 12.541 7.11 12.541 6.27C12.541 5.33 12.711 4.5 13.051 3.78C13.391 3.06 13.861 2.46 14.461 1.98C15.061 1.5 15.761 1.14 16.561 0.899999C17.381 0.639999 18.251 0.509999 19.171 0.509999C19.651 0.509999 20.131 0.539999 20.611 0.6C21.091 0.639999 21.521 0.679999 21.901 0.719998C22.341 0.779999 22.771 0.839999 23.191 0.899999V6.51C23.031 6.49 22.851 6.47 22.651 6.45C22.491 6.43 22.311 6.41 22.111 6.39C21.911 6.37 21.701 6.36 21.481 6.36C21.361 6.36 21.211 6.37 21.031 6.39C20.851 6.39 20.681 6.41 20.521 6.45C20.361 6.49 20.221 6.56 20.101 6.66C19.981 6.76 19.921 6.9 19.921 7.08C19.921 7.24 20.051 7.44 20.311 7.68C20.591 7.92 20.921 8.2 21.301 8.52C21.701 8.84 22.131 9.21 22.591 9.63C23.071 10.05 23.501 10.53 23.881 11.07C24.281 11.61 24.611 12.22 24.871 12.9C25.151 13.58 25.291 14.34 25.291 15.18C25.291 16.06 25.151 16.89 24.871 17.67C24.591 18.43 24.151 19.1 23.551 19.68C22.971 20.24 22.221 20.68 21.301 21C20.381 21.34 19.291 21.51 18.031 21.51C17.271 21.51 16.561 21.47 15.901 21.39C15.261 21.33 14.691 21.25 14.191 21.15C13.611 21.05 13.081 20.93 12.601 20.79V14.79ZM33.8527 0.989998H39.1327L44.3527 8.67L49.5427 0.989998H54.8227V21H48.4327V13.8L44.3527 19.8L40.2427 13.8V21H33.8527V0.989998ZM37.6327 18.6V4.83L44.3527 14.61L51.0427 4.83V18.6H51.8227V3.39H51.0427L44.3527 13.26L37.6327 3.39H36.8527V18.6H37.6327ZM60.1494 6.24H56.4594V0.989998H70.4394V6.24H66.7494V21H60.1494V6.24ZM63.8394 18.6V4.11H68.1294V3.39H58.7694V4.11H63.0594V18.6H63.8394ZM72.084 0.989998H78.744V15.75H84.264V21H72.084V0.989998ZM82.584 18.6V17.88H75.864V3.39H75.084V18.6H82.584Z" fill="#419D78"/>
</svg>
