<svg width="512" height="512" viewBox="0 0 512 512" fill="none" xmlns="http://www.w3.org/2000/svg">
<path d="M512 256C512 289.353 505.626 321.212 494.017 350.438C487.81 366.07 480.109 380.949 471.081 394.888C459.838 412.275 446.536 428.21 431.532 442.337C422.744 450.623 413.382 458.282 403.497 465.262C361.806 494.707 310.93 512 256 512C201.07 512 150.194 494.707 108.502 465.262C96.13 456.527 84.574 446.736 73.968 435.994C28.233 389.757 0 326.165 0 256C0 185.835 28.233 122.243 73.968 76.006C85.201 64.638 97.499 54.324 110.696 45.213C151.97 16.697 202.031 0 256 0C309.969 0 360.03 16.697 401.304 45.213C411.387 52.162 420.938 59.831 429.892 68.138C445.576 82.641 459.431 99.098 471.082 117.112C480.11 131.051 487.811 145.93 494.018 161.562C505.626 190.788 512 222.647 512 256Z" fill="#4F5269"/>
<path d="M391.05 232.97C383.925 212.306 354.709 212.306 349.01 229.407C343.31 246.508 362.549 256.483 392.476 266.46C422.403 276.436 440.93 302.801 437.367 326.314C433.804 349.827 423.828 380.468 364.687 380.468C327.724 380.468 307.182 357.365 296.973 340.039L330.484 319.901C330.484 319.901 341.885 344.128 363.261 344.128C384.638 344.128 393.188 337.003 393.188 320.614C393.188 300.663 324.07 293.538 313.382 259.335C302.694 225.132 316.945 176.679 366.823 180.241C397.998 182.468 415.533 197.776 424.301 208.944L391.05 232.97Z" fill="#F2F2F2"/>
<path d="M235.714 183.805C235.714 183.805 235.714 304.226 235.714 320.615C235.714 337.003 221.463 345.555 207.212 342.704C192.961 339.854 186.548 322.753 186.548 322.753L153.771 344.842C153.771 344.842 160.896 377.619 205.787 380.47C250.678 383.32 276.329 356.243 276.329 333.441C276.329 310.639 276.329 183.805 276.329 183.805H235.714Z" fill="#F2F2F2"/>
<path d="M73.968 45.213V435.994C84.574 446.736 96.13 456.526 108.502 465.262H403.498C413.383 458.282 422.745 450.623 431.533 442.337H96.893V68.138H471.081V394.888C480.109 380.949 487.81 366.07 494.017 350.438V45.213H73.968Z" fill="#F2F2F2"/>
<path d="M87.855 379.758C110.286 379.758 128.47 361.574 128.47 339.143C128.47 316.712 110.286 298.528 87.855 298.528C65.4239 298.528 47.24 316.712 47.24 339.143C47.24 361.574 65.4239 379.758 87.855 379.758Z" fill="#2D3047"/>
</svg>
