<svg width="60" height="60" viewBox="0 0 512 512" fill="none" xmlns="http://www.w3.org/2000/svg">
<path d="M437.883 443.477C437.883 409.777 356.312 382.457 255.691 382.457C155.07 382.457 73.5 409.777 73.5 443.477C73.5 477.18 155.07 504.5 255.691 504.5C356.312 504.5 437.883 477.18 437.883 443.477V443.477Z" fill="#E0A458"/>
<path d="M337.73 440.863C337.73 424.832 301 411.836 255.691 411.836C210.387 411.836 173.656 424.832 173.656 440.863C173.656 456.898 210.387 469.895 255.691 469.895C301 469.895 337.73 456.898 337.73 440.863Z" fill="#ECEBED"/>
<path d="M362.91 55.2891C335.723 25.0625 296.348 7.5 255.691 7.5C215.035 7.5 175.664 25.0625 148.477 55.2891C78.7539 132.809 114.148 248.266 162.328 325.805C188.461 367.852 220.742 405.914 255.691 440.863H255.695C290.645 405.914 322.926 367.852 349.059 325.805C397.238 248.266 432.633 132.809 362.91 55.2891V55.2891Z" fill="#419D78"/>
<path d="M363.387 159.422C363.387 218.898 315.172 267.117 255.691 267.117C196.215 267.117 147.996 218.898 147.996 159.422C147.996 99.9453 196.215 51.7266 255.691 51.7266C315.172 51.7266 363.387 99.9453 363.387 159.422Z" fill="#ECEBED"/>
<path d="M275.691 257.117C216.215 257.117 167.996 208.898 167.996 149.422C167.996 111.242 187.867 77.7031 217.828 58.5781C177.031 73.9062 147.996 113.27 147.996 159.422C147.996 218.898 196.215 267.117 255.691 267.117C276.992 267.117 296.844 260.934 313.555 250.266C301.777 254.691 289.02 257.117 275.691 257.117Z" fill="#DFDFE0"/>
<path d="M255.691 44.2266C192.172 44.2266 140.496 95.9023 140.496 159.422C140.496 222.941 192.172 274.617 255.691 274.617C319.211 274.617 370.887 222.941 370.887 159.422C370.887 95.9023 319.211 44.2266 255.691 44.2266V44.2266ZM255.691 259.617C200.445 259.617 155.496 214.672 155.496 159.422C155.496 104.176 200.445 59.2266 255.691 59.2266C310.938 59.2266 355.887 104.176 355.887 159.422C355.887 214.672 310.941 259.617 255.691 259.617V259.617Z" fill="black"/>
<path d="M199.938 138.047C195.793 138.047 192.438 141.406 192.438 145.547V155.637C192.438 159.781 195.793 163.137 199.938 163.137C204.078 163.137 207.438 159.781 207.438 155.637V145.547C207.438 141.406 204.078 138.047 199.938 138.047Z" fill="black"/>
<path d="M311.449 138.047C307.305 138.047 303.949 141.406 303.949 145.547V155.637C303.949 159.781 307.305 163.137 311.449 163.137C315.59 163.137 318.949 159.781 318.949 155.637V145.547C318.949 141.406 315.59 138.047 311.449 138.047Z" fill="black"/>
<path d="M274.391 149.289C271.269 146.562 266.531 146.883 263.805 150C261.848 152.242 258.891 153.523 255.691 153.523C252.492 153.523 249.535 152.238 247.578 150C244.852 146.883 240.113 146.562 236.992 149.289C233.875 152.016 233.559 156.754 236.281 159.871C241.09 165.371 248.164 168.523 255.691 168.523C263.219 168.523 270.293 165.371 275.098 159.871C277.824 156.754 277.508 152.016 274.391 149.289Z" fill="black"/>
<path d="M320.953 378.926C333.711 362.605 345.164 346.27 355.426 329.762C382.012 286.98 400.227 240.188 406.715 198.004C415.016 144.047 405.16 98.0039 377.434 61.1523C374.941 57.8437 370.242 57.1797 366.93 59.6719C363.621 62.1602 362.957 66.8633 365.449 70.1719C390.656 103.672 399.551 145.914 391.891 195.723C385.699 235.953 368.227 280.746 342.688 321.844C330.547 341.383 316.664 360.688 300.855 380.051C300.832 380.078 300.805 380.102 300.781 380.129C292.516 390.246 283.621 400.484 274.184 410.754C273.836 411.133 257.652 428.219 255.691 430.211C253.734 428.219 241.043 415.559 237.188 410.738C227.758 400.477 218.867 390.242 210.605 380.129C210.582 380.102 210.555 380.078 210.531 380.051C194.719 360.688 180.844 341.383 168.699 321.844C141.762 278.492 123.98 231.523 118.629 189.59C111.965 137.348 123.883 93.8477 154.055 60.3047C179.949 31.5117 216.992 15 255.691 15C288.902 15 321.016 27.1562 346.121 49.2344C349.23 51.9688 353.969 51.668 356.703 48.5547C359.441 45.4453 359.137 40.707 356.027 37.9727C328.184 13.4844 292.551 0 255.691 0C212.746 0 171.637 18.3242 142.898 50.2734C109.676 87.2109 96.5039 134.723 103.746 191.488C109.363 235.516 127.906 284.621 155.961 329.762C166.219 346.27 177.676 362.605 190.43 378.926C114.371 388.453 66 413.266 66 443.477C66 463.715 87.6406 481.848 126.93 494.539C130.871 495.813 135.102 493.648 136.371 489.707C137.645 485.766 135.484 481.539 131.539 480.266C99.8945 470.043 81 456.289 81 443.477C81 424.867 123.211 401.004 201.547 392.738C205.777 397.855 210.141 402.977 214.645 408.109C189.258 413.133 166.156 423.703 166.156 440.863C166.156 464.848 211.199 477.395 255.691 477.395C300.188 477.395 345.23 464.848 345.23 440.863C345.23 423.703 322.125 413.133 296.738 408.109C301.242 402.977 305.605 397.855 309.836 392.738C388.172 401.004 430.383 424.867 430.383 443.477C430.383 455.926 412.348 469.395 382.137 479.516C348.477 490.789 303.57 497 255.691 497C221.559 497 188.387 493.785 159.762 487.699C155.711 486.836 151.727 489.426 150.867 493.477C150.004 497.527 152.59 501.508 156.645 502.371C186.273 508.672 220.523 512 255.691 512C305.145 512 351.742 505.516 386.902 493.738C435.238 477.551 445.383 457.473 445.383 443.477C445.383 413.27 397.016 388.457 320.953 378.926V378.926ZM284.871 421.305C314.492 425.465 330.23 435.16 330.23 440.863C330.23 448.172 303.922 462.395 255.691 462.395C207.465 462.395 181.156 448.172 181.156 440.863C181.156 435.16 196.891 425.469 226.512 421.305C234.297 429.758 242.266 438.039 250.391 446.168C253.316 449.098 258.066 449.098 260.996 446.168C269.117 438.047 277.098 429.758 284.871 421.305V421.305Z" fill="black"/>
</svg>
